<?xml version="1.0"?><svg width="400" height="700" xmlns="http://www.w3.org/2000/svg">
 <title>radio mike</title>
 <metadata id="metadata17611">image/svg+xml</metadata>
 <defs>
  <clipPath clipPathUnits="userSpaceOnUse" id="clipPath17621">
   <path d="m0,2091.97998l0,-2091.97998l891.973022,0l0,2091.97998l-891.973022,0z" id="path17623"/>
  </clipPath>
 </defs>
 <g>
  <title>Layer 1</title>
  <g id="g17613">
   <g id="g17615">
    <g id="g17617">
     <g id="g17619" clip-path="url(#clipPath17621)">
      <path d="m231.341904,51.762512c-2.1492,0.486038 -3.199203,-1.850975 -3.75,0c0.699585,0 1.412094,1.01104 0,1.247978c-1.987503,-1.247978 -5.023804,-1.18499 -2.500793,-3.75c-5.974213,0.564041 -5.273407,0.564041 -11.25,0c0.025787,6.513062 6.51329,-0.675003 5.000381,6.252022c4.437912,-1.625969 4.537506,-2.825974 9.999619,-1.250969c0.012878,-1.650002 2.187881,-1.137016 2.500793,-2.499031zm46.249191,136.251007c3.025787,6.422974 3.225006,-4.302017 0,0l0,0zm5.000397,-6.252014c0,-0.836975 0,-1.661987 0,-2.498993c-1.250397,0 -2.499573,0 -3.75,0c0,0.837006 0,1.662018 0,2.498993c1.250427,0 2.499603,0 3.75,0zm1.250397,-30c3.075012,1.938034 3.676208,-4.250977 1.249207,-3.75c-0.073822,0.762024 -0.1875,1.476013 -1.249207,1.251007c0,0.837021 0,1.662018 0,2.498993zm7.500031,-33.750008c0.412476,-4.886971 2.14917,-13.748985 -1.250427,-16.250969c0.800415,5.024994 -1.625397,13.28997 1.250427,16.250969zm41.249969,38.751015c-0.912903,2.798981 -3.762909,-2.762985 -6.250793,-2.501984c3.10199,4.889969 8.024994,10.901993 3.75,16.250977c-2.237091,-1.922974 -0.999603,-7.325974 -4.999207,-7.5c-2.312103,2.199005 0.324615,3.876007 2.499603,5.001007c-3.112488,0.576019 -9.236694,-6.564011 -13.749603,-8.751007c-0.6492,3.462006 6.712494,4.688995 4.999207,11.25c-2.211304,-1.125 -3.6492,-3.011993 -6.249603,-3.75c4.475403,5.937012 12.412506,8.424011 16.250397,15c-4.837494,2.901001 -0.575409,8.001007 -2.500793,12.501007c-4.199982,1.287018 -1.948792,-3.887985 -2.499603,-6.248993c-4.236298,4.425003 -8.162109,-1.341019 -12.500397,-3.75c-2.537109,1.034988 3.00119,4.373993 3.75,6.248993c-0.698395,2.601013 -1.948792,2.648987 -3.75,1.251007c2.037903,5.048996 7.739105,6.422974 11.25,9.998993c0.025818,5.435989 0.412506,11.25 -1.249207,15c-4.199982,-1.637985 -8.600403,-3.062988 -11.249969,-6.248993c-1.962921,0.434982 1.099182,2.19899 -1.250427,2.498993c2.000397,-0.401993 4.4133,4.962006 -1.250397,2.498978c1.200012,5.052032 5.81369,6.687012 10.000793,8.751022c1.075806,4.148987 -0.412476,7.07399 1.249207,12.501007c-1.58551,2.886002 -7.125,-3.675003 -3.75,1.247971c-2.25,2.562012 -6.862488,-3.062988 -9.999603,-3.75c-3.549591,-0.212982 1.512909,8.175003 -3.75,6.252029c7.824615,4.709991 14.926208,8.747971 11.25,19.997955c-5.475006,0.912048 1.012512,-2.486938 -2.499573,-2.498962c-1.586731,0.287994 -1.637146,3.726013 0,3.75c-1.762512,2.087982 -6.862518,-3.062988 -10.000824,-3.75c0.363312,3.848999 0.75,2.099976 -3.75,6.248962c3.214508,3.462036 8.16449,5.175018 12.500397,7.5c-2.424591,2.412048 1.3125,5.025024 1.250427,8.751038c-1.200012,1.425018 -7.325439,4.173004 -5.000427,5.001007c-2.325012,2.246979 -6.849579,-3.927032 -11.25,-3.75c-2.012085,0.222015 2.037903,5.936981 -3.75,4.997955c4.912506,5.925018 16.026611,5.637024 15,17.502045c-4.625397,-0.876007 -5.525391,1.973999 -5.000397,6.248993c-3.56131,-1.851013 -8.274597,-2.565033 -11.25,-5.001007c-5.411682,1.776001 -0.486298,6.927002 -7.5,3.75c3.825012,5.763 12.925812,6.237 18.75,10.002014c-1.011292,4.322968 2.337891,5.273987 0,7.5c-2.374207,2.333984 -3.137085,0.134979 -6.249603,0c0.550781,2.360992 -1.700378,7.536011 2.499603,6.248993c-5.748016,2.360992 -11.387085,-4.212006 -17.499603,-3.75c-7.311279,0.561005 -8.085907,6.074982 -15,7.5c-4.224609,-10.389008 -7.449585,-18.015015 -5.000366,-30c4.938263,6.884979 0.8508,-6.300018 2.500793,-17.498993c1.112061,-7.515015 2.861694,-16.851013 3.75,-20.001007c0.062073,-0.225006 2.261688,0.161987 2.499573,0c-0.037506,-1.214996 -1.523376,-0.975006 -2.499573,-1.251007c5.099976,-16.899002 10.863281,-48.611984 11.25,-69.998978c-1.011322,10.100998 -7.700409,22.334961 -7.500031,37.5c-3.973785,-5.57399 0.8367,-15.69899 2.499603,-24.999008c1.176605,-6.576004 -0.312897,-13.625992 3.75,-17.502029c3.413696,-0.911972 2.512512,2.487015 5.000427,2.502029c1.361694,-5.115005 -4.300812,-3.201004 -5.000427,-6.252014c0.9375,-7.39798 3.576599,-13.089005 3.75,-21.248993c1.801208,0.287994 0.437103,3.726013 2.499603,3.75c-0.798004,-4.137009 -1.011322,-17.076019 1.250397,-25.001984c0.462921,-2.124023 -0.975006,-2.361008 -2.499573,-2.499023c2.774963,-4.412994 7.562073,-10.274994 4.999176,-16.250977c8.125793,1.464005 -1.699188,9.61499 1.250397,17.501984c3.164093,-6.42601 3.726593,-15.437973 5.000427,-23.751015c-4.700409,-0.950966 -0.862518,6.639 -6.250824,5.001022c2.550018,-4.412987 -4.562103,-8.162987 0,-16.250977c-3.711304,-1.28701 -3.174591,-6.837013 -7.5,-7.5c0.200409,-1.461029 2.277008,-1.050003 3.75,-1.251015c-5.072998,-3.375 -10.536285,-8.310028 -14.999969,-8.748009c5.474976,-3.10199 -3.823853,-2.237991 0,-7.5c-1.262115,-2.075981 -5.312134,-1.362022 -7.5,-2.501991c0.700775,-6.224998 -8.786728,-7.160995 -4.999222,-12.498009c-2.238297,-0.16201 -2.637909,1.524025 -5.000412,1.248009c-4.574997,-8.748009 -18.849594,-7.82399 -27.500381,-12.498009c-3.737106,1.686001 -5.5242,5.312988 -6.249603,9.999016c-5.1129,6.125984 -18.6996,11.375984 -24.999603,2.498993c0.099609,-4.898987 2.1996,-7.799999 3.75,-11.25c3.412506,1.151993 -1.750793,3.914978 0,7.5c4.6371,-8.273987 11.936707,-13.898987 17.499603,-21.248985c-4.050003,2.08799 -2.662506,1.823944 -8.750397,1.250977c19.962891,-7.737007 40.150787,4.44902 56.250015,8.748009c-10.012527,2.501991 -22.549225,-3.27301 -36.249634,-1.248009c-1.836288,4.74902 5.587509,0.249023 3.75,4.998009c9.912918,-2.010017 19.524612,1.037991 31.250397,3.75c7.811737,1.800003 11.837128,8.376015 18.750031,11.25c5.687073,2.364006 12.099579,4.187996 17.499573,8.751007c8.626221,7.275009 15.587097,23.786972 22.5,36.248993c2.912109,5.25 4.4133,16.014008 7.5,23.751007c-3.312897,2.825974 -7.112091,-4.5 -11.25,-5.001007c6.2883,6.212982 14.912109,10.089005 20.000397,17.501984" id="path17625" fill-rule="nonzero" fill="#231f20"/>
      <path d="m290.091492,101.760521c3.399597,2.501991 1.662872,11.364006 1.250397,16.251022c-2.875824,-2.961006 -0.450012,-11.226021 -1.250397,-16.251022" id="path17627" fill-rule="nonzero" fill="#ffffff"/>
      <path d="m285.091095,148.011505c2.427002,-0.501022 1.825806,5.687988 -1.249207,3.75c0,-0.837036 0,-1.662018 0,-2.498993c1.061707,0.225006 1.175385,-0.488998 1.249207,-1.251007" id="path17629" fill-rule="nonzero" fill="#ffffff"/>
      <path d="m282.591492,179.262512c0,0.837006 0,1.662018 0,2.498993c-1.250427,0 -2.499603,0 -3.75,0c0,-0.836975 0,-1.661987 0,-2.498993c1.250397,0 2.499573,0 3.75,0" id="path17631" fill-rule="nonzero" fill="#ffffff"/>
      <path d="m277.591095,188.013519c3.225006,-4.301987 3.025787,6.423019 0,0l0,0" id="path17633" fill-rule="nonzero" fill="#ffffff"/>
      <path d="m75.091003,331.761993c0.337494,-1.701996 -0.774605,-4.875 -1.249207,-2.498993c-0.337494,1.700012 0.774605,4.875 1.249207,2.498993zm35.000496,-76.248993c0.287102,-1.940994 4.800003,-5.837997 1.250404,-7.5c0.549599,2.772003 -3.862503,6.774994 -1.250404,7.5zm3.75,57.498993c0.337502,-1.701996 -0.774597,-4.875 -1.250397,-2.498993c-0.337502,1.700012 0.775795,4.875 1.250397,2.498993zm1.250404,-77.498993c1.224594,-3.414001 4.324196,-11.438995 2.499596,-13.75c-1.624199,2.636993 -6.574196,13.548004 -2.499596,13.75zm11.250107,-68.751999c-0.075012,3.974991 4.424988,14.798996 3.749985,11.250992c-2.161987,-2.837997 0.487015,-10.487991 -3.749985,-11.250992zm7.5,-87.500496c-1.725006,0.050995 -2.751007,-0.585007 -3.750015,-1.248001c0.487015,2.147995 -1.849991,3.197998 0,3.749992c0.362015,-2.600998 3.386993,1.848007 3.750015,-2.501991zm-3.750015,78.749489c4.561996,-0.485992 4.699005,-11.909988 3.750015,-13.748993c-3.887009,1.949997 -2.126007,9.53801 -3.750015,13.748993zm7.500015,-23.747498c-1.713013,-5.261993 5.061981,-13.226997 0,-13.751999c1.686981,6.039001 -5.162018,11.940002 0,13.751999zm2.498993,-26.25c3.475006,1.998001 3.462997,-5.399994 1.251007,-5.000992c0.098999,2.174995 -0.276016,3.887993 -1.251007,5.000992zm3.75,-44.999996c-0.662003,-1.799999 4.875,-3.051003 1.250992,-3.75c0.150009,1.274998 -5.387985,2.522999 -1.250992,3.75zm-11.25,307.499493c4.600998,3.201019 9.800995,7.950012 15,6.248993c-1.623993,-4.247986 -7.200012,-4.573975 -11.25,-7.498993c-8.225006,-5.937988 -18.8116,-16.748993 -22.499504,-27.498993c-1.199997,-3.489014 -0.574196,-12.888 -2.499596,-11.25c-0.412506,7.035004 3.124199,12.024994 -1.250404,16.248993c5.275803,10.424011 13.6875,17.613007 22.499504,23.75zm13.75,-298.751495c0.175995,-1.472992 2.225006,-2.834999 0,-3.75c-0.175003,1.476006 -2.223999,2.838005 0,3.75zm2.501007,383.750488c0.33699,-1.697998 -0.776016,-4.873993 -1.251007,-2.5c-0.337006,1.702026 0.776001,4.876007 1.251007,2.5zm-8.751007,-242.498993c1.949997,4.299011 10.212997,7.536011 15.000992,5.001007c-0.812988,-5.865005 -9.137985,-4.188004 -15.000992,-5.001007zm10,-141.251495c1.000992,-4.460999 6.599991,-10.848 5.000992,-13.749001c-0.388,5.076004 -8.637985,8.814003 -5.000992,13.749001zm-3.75,187.502502c1.850006,7.761017 8.576004,0.036011 15,4.998016c-2.162003,-4.500031 -9.475006,-3.864014 -15,-4.998016zm11.25,-67.5c0.974991,-0.276001 1.451004,-1.052994 1.25,-2.501007c-4.598999,-1.375 -8.261002,-1.599991 -15,-2.5c0.212997,1.875 -0.449005,4.611008 1.250992,5.001007c3.150009,-0.725998 10.987,3.485992 15,1.248001c-0.974991,-0.276001 -2.462997,-0.037994 -2.500992,-1.248001l0,0zm3.75,194.998993c0,-0.837982 0,-1.662994 0,-2.501007c-0.837006,0 -1.662003,0 -2.5,0c0,0.838013 0,1.663025 0,2.501007c0.837997,0 1.662994,0 2.5,0zm2.500992,-220.000992c-2.225998,-0.612 0.53801,-1.33699 1.249008,-2.498993c-1.962006,-0.126007 -4.337006,0.162003 -3.75,-2.501999c-6.436996,2.174988 -4.837006,-3.473999 -13.75,0c1.513,0.263992 0.763,1.388992 0,2.501999c4.824997,0.623993 10.962997,6.473984 16.250992,2.498993zm1.249008,370.000961c0.201004,-0.875 -0.436996,-7.273926 -1.249008,-3.749939c-1.100998,4.762939 0.675003,6.263 1.249008,3.749939zm1.25,-465.001465c-0.311996,-4.397995 7.537994,-8.486996 1.250992,-11.25c0.212006,3.639 -4.388,8.826004 -1.250992,11.25zm-13.748993,67.5c5.286987,-0.686996 20.498993,6.749496 17.498993,-1.248001c-0.686005,6.386505 -5.137009,-0.263992 -5,-2.501999c-2.585999,0.738007 -8.210999,-1.548004 -8.749008,1.251007c4.762009,2.162994 -4.863007,-0.098999 -3.749985,2.498993zm-1.251007,238.750488c7.388,2.21402 16.388,9.413025 23.750992,7.5c-9.026001,-0.574982 -17.112991,-8.699982 -23.750992,-7.5zm22.5,-262.498489c0,-1.661995 0,-3.338997 0,-5.000999c-4.012009,-0.437996 -7.712006,3.213005 -11.25,1.250999c0.701004,0 1.425003,-1.014 0,-1.250999c-0.387009,1.689003 -1.774002,2.388 -1.25,5.000999c4.164001,0 8.337997,0 12.5,0zm3.75,-30c-0.186996,1.674004 1.962997,6.888008 2.5,3.75c-2.186996,-2.549995 0.938004,-2.450996 -1.249008,-5.000992c-1.662994,0 -3.337997,0 -5.000992,0c1.438004,3.938995 -1.960999,3.038994 -2.499008,5.000992c2.362,-0.276001 2.762009,1.413002 4.999008,1.248001c0.212997,-1.874992 -0.449005,-4.610992 1.25,-4.998001zm2.5,386.248489c-0.274002,1.576019 -1.949997,2.550018 1.25,2.5c-2.973999,-4.524994 -2.274002,-12.723999 -9.999008,-12.498993c1.598999,5.701019 1.512009,13.201019 8.749008,9.998993zm5,-86.25c-3.949997,0.613007 -4.412003,-2.25 -8.75,-1.25c-1.536011,4.151001 8.451004,3.063019 8.75,1.25zm87.500977,-259.999489c-1.312988,7.250999 5.412018,0.525002 0,0l0,0zm-193.750977,218.735512c0.813293,-5.009003 5.9133,13.626984 15,15.015991c-10.2621,0.225006 -17.248802,-18.802002 -26.25,-20.001007c-0.199203,-1.449005 0.275398,-2.22699 1.250397,-2.498993c-1.250397,-1.725006 -2.0625,0.536011 -3.75,-2.5c1.562103,-17 -3.024605,-22.389008 3.75,-33.75c6.8004,0.285004 4.625404,9.537994 5.000397,16.248993c2.7621,-0.151001 0.525002,-5.302002 1.249207,-7.5c3.376198,5.036011 2.463295,-7.449005 2.500793,-7.5c0,-0.013 2.449203,1.511017 2.499603,1.251007c0.287102,-1.777008 -2.737503,-6.813995 -1.250397,-9.998993c1.1754,-2.526001 3.9375,-2.540985 6.250801,-6.252014c-0.925804,-2.826996 -7.012505,-0.485992 -10.000801,-1.247986c-0.311707,-4.890015 4.462502,-12.138 -3.75,-11.25c3.599998,-3.489014 7.7883,-6.390015 16.250397,-5.001007c2.287498,0.272003 -1.662895,-8.914001 5.000397,-7.5c-1.7379,-2.850006 -8.699997,-0.462006 -12.500397,-1.251007c1.0383,-7.463989 0.462898,-7.724991 -1.250397,-13.748993c5.438698,-2.352997 18.138397,-3.126007 15,-9.998993c-0.924606,-2.826004 -7.011307,-0.489014 -9.999603,-1.251007c3.575401,-5.664001 -2.274597,-8.139008 0,-12.501007c-10.912498,2.937012 8.237099,-4.997986 13.749702,-4.997986c1.437897,-2.625 -0.761703,-4.875 2.500801,-7.5c-0.438301,-1.55101 -7.200104,1.022995 -11.250107,0c1.249207,-7.365005 -2.412895,-11.601013 4.999207,-16.251007c5.088394,0.75 9.200493,2.460007 8.750496,8.751007c1.562103,-4.539001 -2.212502,-17.838013 3.75,-21.252014c-2.4375,-1.937988 -6.212097,5.400009 -12.500496,3.75c4.338394,-4.049988 -4.337105,-7.212997 0,-11.25c-2.511307,-0.426987 -3.911705,0.248001 -3.75,2.502014c-7.086304,-9.28801 20.562996,-4.054001 20.000496,-15.003998c-0.174599,-2.061005 -8.5746,-2.061005 -8.750397,0c-0.686699,-5.561005 -7.736801,-4.761002 -7.500099,-11.25c2.3638,0.138992 0.862495,4.140991 3.750099,3.75c0.513298,-1.547012 1.426201,-3.636017 3.75,-6.248001c-2.237106,-0.162003 -2.636703,1.522995 -4.999199,1.250992c6.386696,-5.375992 18.512093,-5.562012 18.75,-13.752502c-6.225006,0.315002 -5.313301,0.513 -10.000801,1.251007c-1.2621,-4.149002 -6.911705,-3.912003 -6.249603,-9.999008c4.299599,-3.626999 -0.774597,4.737 3.75,6.249008c-2.099998,-1.713013 5.424599,-9.549004 1.250404,-8.751007c3.324593,-6.261002 16.299599,-2.862 16.249199,-12.498001c-0.686699,-1.799995 -7.249199,0.987 -9.999603,1.248001c-0.125397,-3.525002 -4.712097,-5.309998 -1.250397,-8.748001c-3.212105,0.099007 -1.787102,5.823006 -4.999199,2.499001c-0.050407,-8.699997 9.699593,-7.926003 15,-11.249992c3.337494,-2.100006 3.761696,-5.286003 7.500107,-6.249008c0.388,-10.562996 -0.700912,-10.788002 1.248993,-18.75c2.712997,-0.212997 0.563995,4.437004 1.25,6.249008c5.362991,-2.601006 1.250992,-9.276001 0,-9.999008c2.838989,-2.952 3.738998,1.563004 5.001007,3.75c3.537994,-5.537994 7.199997,-10.661999 7.5,-16.250999c-2.901001,3.339005 -5.66301,6.837002 -7.5,11.25c-1.888,-9.399002 9.912979,-15.911964 19.998993,-17.498978c-2.061005,3.347977 -5.299011,5.537979 -7.5,8.747978c7.562988,-1.611 14.112991,-15.035965 30,-12.497978c-3.537003,3.137993 -7.423996,5.912979 -10,9.998978c9.224991,-6.611969 20.063004,-11.613007 36.25,-11.250031c-2.550003,1.362022 -6.537003,4.563072 -8.749008,2.499031c-1.250992,0.990013 0.462006,4.377022 -2.500992,6.251999c0.300003,3.225006 2.149994,-1.712997 5,0c3.337997,-2.214005 -3.199997,3.213005 -6.249008,2.499001c2.512009,2.874001 -1.687988,6.624001 -3.75,8.751003c1.299011,8.325001 -1.362991,15.848995 0,26.249996c0.237,1.011002 1.249008,1.248001 1.249008,2.499008c36.300003,2.450996 61.724991,15.773994 87.5,28.748993c2.25,4.476006 0.849976,10.152008 -1.25,13.751999c-28.074997,-5.801987 -52.999008,-25.238998 -90,-26.25c-3.375,0.375 -2.237,5.262001 -4.999008,6.249001c3.75,2.937004 14.962006,5.000999 19.999008,2.499001c23.513,9.402 49.350998,16.475998 71.25,27.501511c-0.161987,2.236984 1.526001,2.636993 1.25,5.000992c0.050995,3.197998 -0.924011,1.524002 -2.499023,1.247009c-2.425964,1.740997 -1.862976,6.477997 -3.749969,8.751999c-29.276016,-9.075012 -52.624008,-24.900497 -87.501007,-24.999512c-1.862,1.062012 -1.811996,4.022995 -2.499008,6.249496c3.399002,2.826004 14.424011,5.67601 17.499008,1.251007c-0.624008,2.613007 3.974991,2.19899 6.25,4.997009c25.763992,4.649994 46.862991,13.977997 67.5,23.751984c0.888,6.711014 -0.987,10.677002 -2.5,15c-5.987,-1.247986 -17.77301,-5.687988 -30,-9.998993c-9.686996,-3.414001 -21.824997,-6.050995 -26.25,-8.751007c-0.274002,-0.173996 1.662994,-1.925995 1.250992,-2.498993c-4.362991,3.735001 -6.651001,-2.600998 -12.500992,-1.250992c0.662994,-0.999008 1.300003,-2.025009 1.250992,-3.75c-9.737991,7.763992 -25.325989,-7.938004 -28.750992,7.499985c4.888,1.737 10.737991,5.964005 16.250992,3.75c2.287003,-0.923996 1.587006,-9.299988 2.499008,-1.247986c20.725998,7.697998 52.563004,14.873993 73.750977,26.25c0.987,6.173996 0.350037,8.023987 -1.250977,13.748993c-28.962006,-3.264008 -66.287003,-25.740005 -93.75,-22.5c-2.600006,0.324005 -0.337006,5.485992 -2.499008,6.248993c4.848999,3.026001 14.649002,5.061005 21.249008,2.502014c-0.686005,2.770996 2.388992,1.772995 2.5,3.75c12.813004,1.973999 25.474991,5.960999 37.5,9.998993c11.587997,3.888 24.800003,6.300003 32.500977,15c-1.151001,4.274994 -1.875,8.949005 -3.749985,12.501007c-2.138,-3.363007 -6.026001,-0.591003 -8.750992,-1.251007c-3.800003,-0.927994 -7.973999,-3.488998 -12.5,-5.001007c-21.899002,-7.349991 -42.561996,-16.298996 -72.499008,-17.498993c-1.862991,1.061005 -1.812988,4.022003 -2.500992,6.248993c2.263,5.661011 13.951004,1.875 18.75,5.001007c2.399994,-0.139008 -1.460999,-4.188995 0,-7.5c2.763,3.462006 2.888992,5.850006 3.75,8.751007c26.126999,5.123993 50.362991,12.134995 71.25,22.5c1.5,3.895996 -0.25,10.035004 -2.5,13.748993c-30.675003,-3.100006 -64.249008,-26.089005 -99.998993,-20.001007c-4.750015,-2.638 -5.850006,-2.187988 -13.751007,-2.498993c5.674988,1.949997 1.613998,8.835007 13.751007,7.5c3.048981,-1.264008 -2.451019,-5.526001 3.75,-5.001007c0.398987,2.901001 -0.201019,4.800003 -1.251007,6.252014c35.388992,5.862 69.212997,13.286987 96.25,27.497986c-1.037003,5.625 -2.087006,11.25 -6.25,13.752014c-1.811996,-0.552002 0.125992,-1.101013 0,-2.502014c-19.662003,-0.35199 -45.975006,-14.549988 -71.25,-17.498993c-1.673996,0.825012 -2.324997,2.673004 -2.499008,5.001007c-1.574997,-0.315002 -1.261993,-2.490021 0,-2.502014c-5.651001,-7.898987 -24.987991,-6.975006 -29.999985,-2.498993c-0.351013,2.013 1.186981,2.147003 1.248993,3.75c2.850006,0.347992 4.699997,-0.300018 5,-2.498993c-1.162003,5.648987 17.699997,9.086975 22.5,4.997986c1.475998,1.862 3.138,3.524994 5.000992,5.001007c25.374008,4.199982 47.812012,11.348999 69.999008,18.75c2.076004,5.210999 -0.887009,12.248993 -5,15c-1.52301,-0.938995 6.050003,-8.088989 1.25,-12.501007c1.149994,2.138 -3.473999,11.048004 -3.75,11.25c-21.774002,-0.324005 -46.587006,-15.062988 -68.75,-15c-7.862,-3.713989 -25.825012,-8.138977 -34.999008,-2.498993c1.436996,1.585999 6.787003,4.222992 0,3.75c5.936996,6.959991 7.762009,11.687988 4.999008,22.5c-2.812012,-0.524994 -0.035995,-6.639008 -2.5,-7.5c-0.537003,1.472992 -1.050003,6.200012 -2.499008,9.998993c3.800003,5.537018 8.811996,14.537018 6.249008,22.5c2.450989,-4.237 2.126007,4.723999 4.813004,9.737c-1.438004,-1.787994 -3.199997,-3.587982 -4.813004,-3.488983c2.037994,-2.561005 -2.325012,-4.223999 -3.498993,-7.647003c2.049988,13.199982 15.599991,23.684998 28.498993,28.89798c-2.999008,-4.498993 -8.562012,-6.435974 -12.498993,-10.000977c14.112991,5.100983 38.562988,28.578003 59.999985,15.001984c-2.975998,-2.287994 -4.612991,3.011017 -8.750992,-2.501007c-0.787003,2.700012 -5.012009,1.963013 -6.074997,4.389008c0.487991,-3.876007 -13.699005,-3.787994 -11.424011,-8.139008c-1.776001,-0.112976 -3.537994,-0.211975 -3.75,1.25c-3.562988,-5.086975 -23.675995,-12.186981 -28.750992,-19.998993c-1.450012,-0.199005 -2.223999,0.276001 -2.5,1.251007c-4.099014,-2.214996 1.462997,-5.063995 2.5,-6.252991c-3.524002,-3.636017 -1.562012,3.738983 -6.25,2.502991c-6.087006,-14.076996 -5.775009,-26.502991 2.5,-38.751007c-3.936005,1.062012 -5.186996,4.812012 -6.25,8.751007c-4.386993,-0.339996 3.138,-4.661987 -1.25,-5.001007c10.712997,-14.873993 27.974991,2.197998 23.75,21.251007c2.688004,-5.339996 2.737991,-2.277008 1.250992,2.5c3.549011,1.709991 0.150009,-0.975006 1.249008,3.75c2.862991,12.26001 21.113998,22.574005 35,27.498993c3.263,1.162994 6.725998,0.138 10,1.248993c3.013,1.025024 5.375,4.139008 7.5,5c1.425003,0.58902 4.688004,-2.797974 2.500992,1.251007c3.437012,-0.725983 5.223999,-3.112 8.749008,-3.75c-2.061996,3.350006 -5.298996,5.537994 -7.5,8.748993c6.263,3.738007 12.901001,7.101013 22.5,7.5c-11.262009,2.075012 -31.699005,2.538025 -41.25,-1.248993c-2.737,0.188019 -2.686996,3.151001 -2.5,6.248993c-0.275009,5.625 -2.25,-14.572998 -7.400009,-2.723999c0.988007,-1.863983 0.41301,6.150024 -0.099991,7.725006c-3.324005,10.299011 -9.112,38.251007 -11.25,56.25c-0.375,3.161011 -1.550003,5.199005 -1.25,7.5c1.724991,13.138 9.625992,10.951019 13.750992,18.75c3.337006,0 6.662003,0 9.999008,0c-24.225006,-0.5 -25.999008,-37.026001 -12.5,-51.251007c-3.512009,-17.072998 25.337997,-17.598999 35,-8.748993c-5.38501,2.761993 3.164993,5.710999 5.000992,8.748993c-7.149994,-4.687988 -17.450989,-3.487976 -23.750992,-7.5c2.000992,-2.16098 5.625,-2.711975 10,-2.5c-10.649002,-5.625 -29.936996,10.350006 -30,25c2.412994,-0.510986 0.987991,-4.848999 5,-3.75c-4.699005,9.213013 6.662994,12.264008 6.25,21.251007c-5.949997,0.125 -5.925003,-5.738007 -11.25,-6.251007c-1.699005,15.937012 12.776001,19.063019 27.5,23.75c-3.275009,5.976013 -10.5,6.577026 -16.25,6.25c-9.100006,-0.510986 -14.237,-8.372986 -21.25,-8.748993c3.974991,1.850006 4.875,6.787994 8.750992,8.748993c2.687012,29.239014 -1.450989,62.801025 -1.250992,91.25c0.313004,1.364014 2.487991,0.851013 2.5,2.5c-2.425003,3.799988 1.451004,10.177002 -2.5,10.001038c-5.987,-0.287048 0.963989,-4.438049 0,-7.5c-2.237,-25.925049 -6.337006,-53.038025 -6.249008,-82.500031c0.012009,-3.100006 1.749008,-5.539001 1.249008,-8.751007c-1.375,-8.911987 -7.624008,-15.547974 -11.25,-23.75c-4.874008,-11.010986 -0.587006,-30 2.500992,-40c-0.886993,-1.385986 -6.925995,-1.185974 -8.750992,2.5c-3.75,-0.823975 1.199997,-2.672974 0,-4.998993c-4.074005,-1.699005 -9.324005,3.001007 -9.998993,-2.501007c-2.901001,3.351013 -4.92601,7.576019 -5.001007,13.751007c2.113007,0.113007 8.5,0.813019 13.75,1.248993c-0.699997,2.600006 -1.949997,2.651001 -3.75,1.25c-0.598999,6.851013 5.449997,12.314026 2.500992,17.5c5.137009,-2.360992 1.262009,-13.735992 3.75,-18.75c-0.299988,-0.886993 -1.712997,-4.39798 -2.912994,-3.823975c4.149994,-5.475006 5.625,10.848999 4.162003,21.324982c-0.449005,3.188019 -3.137009,5.488007 -3.75,8.748993c-1.350006,7.188019 4.375992,17.614014 -1.249008,13.751007c0.650009,3.100006 3.049011,4.451019 4.999008,6.248993c-0.537003,14.452026 3.039001,21.137024 -1.249008,33.75c-0.899994,3.401001 5.900009,-0.899963 4.999008,2.5c1.225998,3.487 -2.473999,1.138 -2.5,1.25c-1.074005,4.252014 1.388,9.887024 1.250992,15c-0.061996,2.463989 -2.412994,1.85199 -2.500992,2.5c-0.324997,2.514038 1.375992,4.814026 1.25,7.5c-0.275009,5.838013 -2.862,11.689026 -6.249008,15c-3.175995,-33.210999 -2.912994,-67.223999 -10.000992,-106.248993c-1.699005,0.388 -1.037003,3.123993 -1.248993,4.998993c-2.563019,-3.449982 -4.650009,-6.987 -5.001007,-7.5c-0.537003,-0.774994 0.363998,-2.123993 0,-2.5c-2.299011,-2.348999 -12.812012,0.33902 -8.75,-16.25c-1.887009,3.525024 -2.200012,8.626007 -2.5,13.751007c-5.837006,-6.100983 -0.212006,-18.311981 1.251007,-25.001007c2.82399,0.926025 0.487,7.014008 1.248993,10.001007c4.187988,-14.850006 4.613007,-33.438995 7.5,-48.75c0.388,-2.049988 0.600006,-3.298981 2.500992,-3.75c-21.400894,-11.526001 -44.124695,-21.699982 -51.250992,-47.5c-1.762505,5.289001 -0.911705,6.501007 -1.249207,8.751007c0.387901,2.149994 4.337204,-1.626007 3.750107,3.75c2.474998,1.200012 0.324593,1.222992 -0.862503,0.046997c-0.200401,-0.824005 -0.337502,-1.686005 -0.387901,-2.546997c-0.538002,1.134003 -0.2005,1.985992 0.387901,2.546997c3.587097,14.703003 29.525398,24.677002 39.611603,32.450989c-22.149506,-10.760986 -46.723808,-19.112976 -54.999603,-43.747986c-1.862099,-0.052002 -1.812897,7.424988 -2.499603,1.25c-3.387894,1.134003 1.249207,4.359009 1.249207,6.234009zm247.738983,-217.646507c-0.125,-0.762001 -0.199982,-1.536003 -0.237976,-2.325005c-0.112,0.864006 0,1.625999 0.237976,2.325005" id="path17635" fill-rule="nonzero" fill="#231f20"/>
      <path d="m272.591888,125.511497c5.411713,0.525002 -1.312469,7.251015 0,0l0,0" id="path17637" fill-rule="nonzero" fill="#ffffff"/>
      <path d="m270.091095,153.012512c1.4133,0.287994 -0.123016,8.112 -3.749969,7.5c0.363281,-3.387009 1.612488,-5.888992 3.749969,-7.5" id="path17639" fill-rule="nonzero" fill="#231f20"/>
      <path d="m265.091919,239.262512c2.299194,2.376007 1.075806,11.849991 -2.500793,12.501007c-0.774628,-5.774994 2.8125,-7.203003 2.500793,-12.501007" id="path17641" fill-rule="nonzero" fill="#231f20"/>
      <path d="m262.591125,631.760925c4.537476,-0.298828 2.8125,12.10199 1.250366,13.750793c-7.886719,10.886719 -30.300003,13.275024 -46.250381,8.749207c2.500793,-4.637085 8.549988,-6.173401 13.750793,-8.749207c4.436707,-2.200806 9.262497,-5.912109 13.749588,-7.5c5.9133,-2.088318 14.287506,0.512085 17.499634,-6.250793" id="path17643" fill-rule="nonzero" fill="#231f20"/>
      <path d="m263.841492,254.262512c-0.536682,10.36203 -2.337891,21.248962 -5.000427,32.498962c-1.811676,-9.074982 4.039551,-24.524963 2.500824,-33.749985c1.449615,-0.200974 2.225403,0.276016 2.499603,1.251022" id="path17645" fill-rule="nonzero" fill="#231f20"/>
      <path d="m256.341492,289.263519c0.813293,-3.527985 1.449585,2.873993 1.250397,3.75c-0.575409,2.511017 -2.3508,1.011017 -1.250397,-3.75" id="path17647" fill-rule="nonzero" fill="#231f20"/>
      <path d="m257.591888,248.013519c-0.237915,1.409988 -1.250397,0.684006 -1.250397,0c-1.2117,0.035995 -0.974976,1.523987 -1.250366,2.498993c-1.361725,-0.311981 -0.848419,-2.489975 -2.499634,-2.498993c0.437119,-1.637985 2.199615,-1.965012 2.499634,-3.75c0.299988,1.236008 1.049988,3.398987 2.500763,3.75" id="path17649" fill-rule="nonzero" fill="#231f20"/>
      <path d="m255.091125,253.01149c3.75,0.825012 -1.200027,2.676025 0,5.001022c-3.112518,-0.189026 -0.362152,-4.238998 0,-5.001022" id="path17651" fill-rule="nonzero" fill="#231f20"/>
      <path d="m254.929382,243.399521c0.024628,0.062988 0.087891,0.32399 0.161743,0.863998c-0.112518,-0.453003 -0.161743,-0.789001 -0.161743,-0.863998" id="path17653" fill-rule="nonzero" fill="#231f20"/>
      <path d="m242.591904,569.261292c0.512085,-3.111267 4.849197,-0.073792 3.75,2.499634c-2.773804,0.689087 -1.775406,-2.385925 -3.75,-2.499634" id="path17655" fill-rule="nonzero" fill="#231f20"/>
      <path d="m222.591492,471.761292c-2.175003,-11.987091 -9.875397,-18.449982 -15,-27.500397c-0.262497,-1.511719 -1.387497,-0.774597 -2.499603,0c-4.475388,14.5383 0.011703,35.014496 17.499603,27.500397zm1.250397,-41.25c7.037109,4.563293 11.299194,15.951599 7.5,27.500397c2.087112,-13.674591 -7.713303,-30.561279 -21.250793,-21.250793c5.714096,9.28949 11.275787,18.726624 17.500793,27.500397c-3.249588,3.925812 -1.3125,5.275818 0,9.999603c-5.500809,0.9375 -7.524597,1.649994 -13.750793,3.75c-15.999603,-3.1875 -15.099594,-32.072998 -4.999207,-41.25c0.362106,-5.362518 -5.887497,-4.112091 -6.250793,-8.749207c1.113297,-0.549591 2.238297,-1.100403 2.500793,-2.500793c4.599609,0.824982 6.226212,4.613708 8.749207,7.5c2.738693,-1.423798 5.1129,-3.225006 10.000793,-2.499603" id="path17657" fill-rule="nonzero" fill="#231f20"/>
      <path d="m227.591904,51.762512c0.550797,-1.850975 1.6008,0.486038 3.75,0c-0.312912,1.362015 -2.487915,0.84903 -2.500793,2.499031c-5.462112,-1.575005 -5.561707,-0.375 -9.999619,1.250969c1.512909,-6.927025 -4.974594,0.26104 -5.000381,-6.252022c5.976593,0.564041 5.275787,0.564041 11.25,0c-2.52301,2.56501 0.51329,2.502022 2.500793,3.75c1.412094,-0.236938 0.699585,-1.247978 0,-1.247978" id="path17659" fill-rule="nonzero" fill="#ffffff"/>
      <path d="m170.091492,629.261292c0.600006,-6.486267 -7.812897,-9.049194 -5.000397,-13.749573c-0.8367,0 -1.661697,0 -2.499603,0c-0.761688,0.076172 -1.475403,0.18866 -1.250397,1.249207c1.912491,0.488647 0.1875,1.5 -1.249191,0c0,1.662903 0,3.337463 0,5.000366c5.474991,0.914124 -1.012497,-2.486694 2.499588,-2.499573c1.462494,0.212097 1.362915,1.974609 1.250412,3.75c-1.475403,0.199158 -3.549606,-0.213318 -3.75,1.249207c2.7117,1.875 2.912094,6.250793 7.5,6.250793c0.275391,-0.973816 1.049988,-1.449646 2.499588,-1.250427zm-5.000397,2.499634c0,3.425354 5.8629,7.364075 7.5,5.000366c-1.3992,-0.262512 -1.949997,-1.386292 -2.499603,-2.499573c0.700806,0 1.425003,-1.011292 0,-1.250427c-0.349197,2.950806 -3.337494,-1.436707 -5.000397,-1.250366zm5.000397,-16.249207c-1.187088,2.186707 4.612503,-0.386719 3.75,-1.250427c-1.062897,-1.061707 -3.5625,0.914124 -3.75,1.250427zm2.499603,-5.000427c0.387909,-1.686279 1.775406,-2.385864 1.250397,-5.000366c-3.986694,-1.060547 -4.749588,1.087463 -6.249588,2.500793c0.011703,-6.250793 -0.8508,-1.837524 -2.500809,-1.250427c0.250793,-0.08667 0.012909,-4.287903 -1.249191,-3.75c-0.875412,0.376221 0.774582,4.212891 -1.250412,3.75c-2.424591,-0.548401 -1.624191,-2.337891 -3.75,-3.75c-4.774185,5.987122 7.387512,3.699585 8.750412,7.5c-0.762909,0.076233 -1.475403,0.188721 -1.250412,1.250427c4.775406,1.02417 1.475403,-6.024597 6.249603,-5.000427c-0.174591,1.476624 -2.224197,2.838318 0,3.75zm5.000397,20.000427c-5.049591,-4.399231 -2.9496,4.025391 0,0l0,0zm0,-21.250793c0.762909,0.363281 4.812897,3.112488 5.000412,0c-4.437912,1.939453 -0.75,-4.248047 -3.75,-3.75c-0.062119,1.600769 -1.599609,1.724976 -1.250412,3.75c-0.074997,0.462891 -2.312103,-3.93634 -2.499588,-3.75c-1.900803,1.901978 1.925385,7.201172 2.499588,3.75zm2.499603,28.750793c1.800003,1.39917 3.0504,1.349976 3.75,-1.250427c-1.599609,-0.073792 -1.723801,-1.598389 -3.75,-1.250366c0,0.837891 0,1.662903 0,2.500793zm3.75,-20.000427c1.537491,-4.148376 -8.449203,-3.060913 -8.749191,-1.250366c4.837494,1.701599 4.924194,-0.536743 8.749191,1.250366zm-3.75,2.499634c1.625397,8.414063 10.188293,-2.798401 3.75,2.500793c-0.3246,-1.761292 -2.736298,-1.423828 -3.75,-2.500793zm6.250793,12.500366c0,-0.837891 0,-1.662903 0,-2.499573c-1.250397,0 -2.500793,0 -3.749985,0c0,0.83667 0,1.661682 0,2.499573c1.249191,0 2.499588,0 3.749985,0zm1.249207,-7.5c-3.799194,4.212891 4.625397,3.787537 0,0l0,0zm2.500809,9.999634c-3.412506,-0.112549 -2.512512,2.088257 -5.000412,0c0.0504,1.724976 -0.587097,2.750366 -1.250397,3.75c3.1875,-0.135925 4.375793,-2.287537 6.250809,-3.75zm2.499588,-11.25c-0.200394,-1.474243 0.212112,-3.549622 -1.250397,-3.75c-3.737091,3.337463 -2.099991,2.776184 1.250397,3.75zm3.75,6.250793c-2.587494,0.738281 -8.212494,-1.549194 -8.750397,1.249207c3.625793,1.326599 6,1.600769 8.750397,-1.249207zm0,-2.500793c0,-0.836731 0,-1.661743 0,-2.499634c-0.837891,0 -1.662903,0 -2.499603,0c0,0.837891 0,1.662903 0,2.499634c0.8367,0 1.661713,0 2.499603,0zm-1.250397,-4.999207c2.212494,-0.287109 6.262497,1.263306 5.000397,-2.500793c-2.324997,0.177002 -4.1754,0.824951 -5.000397,2.500793zm6.250793,6.249573c-6.4254,3.024597 4.300812,3.225037 0,0l0,0zm3.75,7.5c-1.799988,-2.762085 -3.0504,1.576233 -3.75,-1.250366c2.325012,-3.360901 -3.8004,1.58905 -5.000397,2.500793c1.574997,-5.286316 -1.9254,1.951172 -5.000397,-2.500793c1.938293,4.439087 -4.249191,0.75116 -3.75,3.75c6.824997,0.162903 13.325394,0 17.500793,-2.499634zm-3.75,-15c2.049606,0.712524 9.862503,-0.248413 7.5,-3.75c-1.049988,2.700012 -6.449997,1.051208 -7.5,3.75zm9.999603,8.750427c0.200409,-5.53833 -3.537903,0.588257 -5.000397,-2.500793c-0.199203,5.53949 3.537903,-0.587097 5.000397,2.500793zm-9.999603,-3.75c7.612503,-1.136719 15.525009,-1.97583 18.75,-7.5c-4.525787,3.038696 -15.0504,3.949158 -18.75,7.5zm12.499207,8.749207c0,-0.836731 0,-1.661743 0,-2.499634c-1.249207,0 -1.487106,-1.011292 -2.499603,-1.250366c0.125397,1.962891 -0.162903,4.339478 2.499603,3.75zm-2.499603,-16.249207c3.1875,-0.150024 6.438309,-0.236694 6.249603,-3.75c-2.175003,1.149597 -6.712494,-0.036316 -6.249603,3.75zm1.250397,8.749207c4.2117,0.801575 10.949997,-2.260498 7.5,-4.999207c-1.3629,2.799561 -6.13829,2.200806 -7.5,4.999207zm7.5,-17.499634c-1.524597,4.537537 2.01329,10.350037 4.999191,6.249634c-8.374191,-0.986694 1.439102,-13.650024 -3.75,-18.75c-2.699997,2.712891 -6.149979,4.714478 -8.749191,1.250366c0.2883,5.701233 -6.875397,3.962097 -10.000793,6.249634c-0.124207,-1.96051 0.162903,-4.337097 -2.499603,-3.75c3.824997,6.439453 -6.487503,4.775391 -12.500397,5.000366c0,3.75 0,7.5 0,11.25c13.199997,-0.135864 23.839493,-2.835876 32.500809,-7.5l-0.000015,0zm2.499603,-13.749573c10.212891,9.875366 4.926605,24.976196 -1.250412,34.999207c-3.986679,0.739502 -3.862488,-2.349609 -6.249588,0c5.150391,5.099976 -3.036301,4.189453 -7.5,6.250793c0.312897,-1.362915 2.4879,-0.85083 2.499603,-2.500793c-0.435898,-1.96051 -2.1996,1.087463 -2.499603,-1.249207c-2.310898,0.18866 -0.762894,4.238708 -2.499603,4.999207c-7.82579,0.925781 -15.800385,1.701599 -25.000793,1.250366c0.226196,-3.537903 -4.699203,-2.912109 -1.249191,-6.249573c-3.912918,0.863708 -1.625412,3.337463 -1.250412,6.249573c-7.537506,-2.874573 -17.724594,-3.111267 -20.000397,-11.25c1.675812,1.250427 2.450409,3.375 5.000397,3.75c-0.262497,-5.987061 -7.762497,-4.737915 -6.249603,-12.500366c1.012512,0.239075 1.249207,1.250366 2.499603,1.250366c-2.137497,-5.023804 -1.637085,-4.950012 -2.499603,-11.25c2.025009,-0.349182 2.150406,1.176636 3.750015,1.250427c0.862503,-5.023804 -5.262909,-3.075012 -5.000397,-7.5c6.262497,-0.512146 -0.42421,-3.887146 0,-6.250793c3.8004,-0.049194 4.863297,2.639099 7.499985,3.75c-0.424194,-3.323425 -3.275391,-4.224609 -6.249603,-4.999207c1.812897,-3.56134 7.487106,2.399963 12.499207,3.75c6.638702,1.788269 18.387909,1.062866 28.750793,1.249207c-1.5,1.639465 -0.487488,1.962891 0,3.75c1.699203,-0.385498 1.037109,-3.124207 1.249207,-4.999207c9.712494,0.550781 13.425003,-4.912537 23.750397,-3.75zm-40.374603,29.89917c-0.13829,-0.011658 -0.250793,-0.011658 -0.350403,-0.023376c0.099609,0.011719 0.225006,0.011719 0.350403,0.023376zm41.124603,-29.848816c0.074997,0 0.174591,0 0.262497,0.014099c-0.087906,-0.014099 -0.174606,-0.014099 -0.262497,-0.014099zm23.224197,-25.148376l0.637512,0.08551l0.762909,0.112488l0.337494,0.050415c-0.087906,-0.012878 -0.212112,-0.036316 -0.337494,-0.050415c-0.2742,-0.036316 -0.536713,-0.073792 -0.762909,-0.112488c-0.23671,-0.037476 -0.448792,-0.060913 -0.637512,-0.08551zm-1.223389,-0.177002l0.698395,0.10083c-0.300003,-0.050415 -0.535492,-0.073853 -0.698395,-0.10083" id="path17661" fill-rule="nonzero" fill="#231f20"/>
      <path d="m225.09111,616.760925c-2.985901,4.100403 -6.523804,-1.712097 -4.999207,-6.249634c-8.661301,4.664124 -19.300797,7.364136 -32.500793,7.5c0,-3.75 0,-7.5 0,-11.25c6.012894,-0.224976 16.325394,1.439087 12.500397,-5.000366c2.662491,-0.587097 2.375397,1.78949 2.499603,3.75c3.125397,-2.287537 10.289093,-0.548401 10.000793,-6.249634c2.599197,3.464111 6.049194,1.462524 8.749207,-1.250366c5.189087,5.099976 -4.624207,17.763306 3.75,18.75" id="path17663" fill-rule="nonzero" fill="#ffffff"/>
      <path d="m220.091904,623.011719c3.449997,2.738708 -3.2883,5.800781 -7.5,4.999207c1.361694,-2.798401 6.137085,-2.199646 7.5,-4.999207" id="path17665" fill-rule="nonzero" fill="#ffffff"/>
      <path d="m217.591095,615.511719c0.188705,3.513306 -3.062103,3.599976 -6.249603,3.75c-0.462891,-3.786316 4.0746,-2.600403 6.249603,-3.75" id="path17667" fill-rule="nonzero" fill="#ffffff"/>
      <path d="m207.591492,444.260895c5.124603,9.050415 12.824997,15.513306 15,27.500397c-17.4879,7.51413 -21.974991,-12.962097 -17.499603,-27.500397c1.112106,-0.774597 2.237106,-1.511688 2.499603,0" id="path17669" fill-rule="nonzero" fill="#ffffff"/>
      <path d="m215.091492,653.011719c6.399597,6.438293 -5.837097,5.874634 -6.323395,11.237122c-5.626205,-0.837891 -4.489502,-0.735962 1.322998,-3.737122c-1.462494,-1.374634 -9.262497,1.511719 -11.25,3.75c-1.849197,-0.549622 0.487503,-1.599609 0,-3.75c-0.8367,0 -1.661697,0 -2.499603,0c-1.425003,0.237854 -0.6996,1.249207 0,1.249207c-0.200394,1.462524 -2.274597,1.051147 -3.75,1.250427c0,2.499573 0,5.000366 0,7.5c-3.087891,0.162842 -6.024597,0.18866 -7.5,-1.250427c5.237106,-2.612122 -1.325394,-3.423035 1.250397,-6.249573c-0.837891,0 -1.662903,0 -2.500793,0c-0.737091,6.37616 -14.43631,1.576172 -16.249191,-5.000427c12.962082,-0.298828 36.812088,3.837891 47.499588,-4.999207" id="path17671" fill-rule="nonzero" fill="#231f20"/>
      <path d="m207.591492,595.511292c-2.623795,-1.110901 4.475403,-2.912109 7.5,-2.499573c-1.2621,2.074158 -5.312103,1.362854 -7.5,2.499573" id="path17673" fill-rule="nonzero" fill="#231f20"/>
      <path d="m213.841095,633.011292c0,0.837891 0,1.662903 0,2.499634c-2.662506,0.589478 -2.374207,-1.787109 -2.499603,-3.75c1.012497,0.239075 1.250397,1.250366 2.499603,1.250366" id="path17675" fill-rule="nonzero" fill="#ffffff"/>
      <path d="m210.091095,523.010864c-3.1371,-0.536621 2.075394,-2.685852 3.75,-2.499573c-0.911697,1.163757 -2.274597,1.889099 -3.75,2.499573" id="path17677" fill-rule="nonzero" fill="#231f20"/>
      <path d="m220.091904,619.261719c-3.225006,5.52417 -11.137497,6.363281 -18.75,7.5c3.6996,-3.550842 14.224197,-4.461304 18.75,-7.5" id="path17679" fill-rule="nonzero" fill="#ffffff"/>
      <path d="m206.341095,628.010925c1.462494,3.08905 5.200806,-3.037537 5.000397,2.500793c-1.462494,-3.087891 -5.1996,3.038696 -5.000397,-2.500793" id="path17681" fill-rule="nonzero" fill="#ffffff"/>
      <path d="m208.841888,618.011292c2.362503,3.501587 -5.450394,4.462524 -7.5,3.75c1.050003,-2.698792 6.450012,-1.049988 7.5,-3.75" id="path17683" fill-rule="nonzero" fill="#ffffff"/>
      <path d="m208.841888,664.261719c-0.024597,0 -0.0504,0 -0.073792,0.012878c-0.014099,-0.012878 0,-0.025757 0,-0.025757c0.023392,0 0.049194,0.012878 0.073792,0.012878" id="path17685" fill-rule="nonzero" fill="#231f20"/>
      <path d="m208.768097,664.274597c-0.0504,0.375 -0.027008,0.787476 0.073792,1.236328c-1.3629,-0.224976 -0.748795,-1.173035 -0.073792,-1.236328" id="path17687" fill-rule="nonzero" fill="#231f20"/>
      <path d="m207.929001,601.811279l-0.337509,-0.050354c0.125397,0.014099 0.249603,0.037476 0.337509,0.050354" id="path17689" fill-rule="nonzero" fill="#ffffff"/>
      <path d="m207.591492,601.760925l-0.762894,-0.112549c0.226196,0.038696 0.488693,0.076233 0.762894,0.112549" id="path17691" fill-rule="nonzero" fill="#ffffff"/>
      <path d="m206.828598,601.648376l-0.637497,-0.085449c0.18869,0.024597 0.400787,0.047974 0.637497,0.085449" id="path17693" fill-rule="nonzero" fill="#ffffff"/>
      <path d="m205.666092,601.486694l-0.698395,-0.100769c0.162903,0.026978 0.398392,0.050354 0.698395,0.100769" id="path17695" fill-rule="nonzero" fill="#ffffff"/>
      <path d="m205.091888,49.26049c0,1.250969 0,2.502022 0,3.75c-3.412491,-0.91201 -2.512497,2.490013 -5.000397,2.502022c-1.775391,3.335968 2.175003,-6.177025 5.000397,-6.252022" id="path17697" fill-rule="nonzero" fill="#231f20"/>
      <path d="m201.341888,635.510925c0.6996,2.826599 1.950012,-1.511719 3.75,1.250366c-4.1754,2.499634 -10.675797,2.662537 -17.500793,2.499634c-0.499191,-2.99884 5.688293,0.689087 3.75,-3.75c3.074997,4.451965 6.575394,-2.785522 5.000397,2.500793c1.199997,-0.911743 7.325409,-5.861694 5.000397,-2.500793" id="path17699" fill-rule="nonzero" fill="#ffffff"/>
      <path d="m201.341888,629.261292c4.300812,3.225037 -6.4254,3.024597 0,0l0,0" id="path17701" fill-rule="nonzero" fill="#ffffff"/>
      <path d="m200.091492,620.510925c1.2621,3.764099 -2.787903,2.213684 -5.000397,2.500793c0.824997,-1.675842 2.6754,-2.323792 5.000397,-2.500793" id="path17703" fill-rule="nonzero" fill="#ffffff"/>
      <path d="m196.341492,625.511292c0,0.837891 0,1.662903 0,2.499634c-0.837891,0 -1.662903,0 -2.499603,0c0,-0.836731 0,-1.661743 0,-2.499634c0.8367,0 1.661713,0 2.499603,0" id="path17705" fill-rule="nonzero" fill="#ffffff"/>
      <path d="m187.591095,631.760925c0.537903,-2.798401 6.162903,-0.510925 8.750397,-1.249207c-2.750397,2.849976 -5.124603,2.575806 -8.750397,1.249207" id="path17707" fill-rule="nonzero" fill="#ffffff"/>
      <path d="m193.841888,381.761292c0.037506,-0.212097 0.099609,-0.412506 0.174606,-0.587097c-0.024597,0.18869 -0.074997,0.375 -0.174606,0.587097" id="path17709" fill-rule="nonzero" fill="#231f20"/>
      <path d="m191.341095,620.510925c1.462509,0.200378 1.050003,2.275757 1.250397,3.75c-3.350388,-0.973816 -4.987488,-0.412537 -1.250397,-3.75" id="path17711" fill-rule="nonzero" fill="#ffffff"/>
      <path d="m185.091492,635.510925c2.4879,2.088257 1.587906,-0.112549 5.000412,0c-1.875015,1.462463 -3.063309,3.614075 -6.250809,3.75c0.6633,-0.999634 1.300797,-2.025024 1.250397,-3.75" id="path17713" fill-rule="nonzero" fill="#ffffff"/>
      <path d="m187.591095,625.511292c4.625397,3.787537 -3.799194,4.212891 0,0l0,0" id="path17715" fill-rule="nonzero" fill="#ffffff"/>
      <path d="m181.341492,598.010925c0.150009,-2.762146 5.3004,-0.536743 7.5,-1.249207c-0.149994,2.762085 -5.3004,0.524963 -7.5,1.249207" id="path17717" fill-rule="nonzero" fill="#231f20"/>
      <path d="m186.341888,630.511719c0,0.83667 0,1.661682 0,2.499573c-1.250397,0 -2.500793,0 -3.749985,0c0,-0.837891 0,-1.662903 0,-2.499573c1.249191,0 2.499588,0 3.749985,0" id="path17719" fill-rule="nonzero" fill="#ffffff"/>
      <path d="m183.841095,623.011719c6.438293,-5.299194 -2.124603,5.913269 -3.75,-2.500793c1.013702,1.076965 3.4254,0.739502 3.75,2.500793" id="path17721" fill-rule="nonzero" fill="#ffffff"/>
      <path d="m176.341095,384.260895c4.338303,-0.999603 4.800003,1.863312 8.750397,1.250397c-0.299988,1.812927 -10.286697,2.900421 -8.750397,-1.250397" id="path17723" fill-rule="nonzero" fill="#ffffff"/>
      <path d="m175.091904,616.760925c0.299988,-1.810547 10.286682,-2.89801 8.749191,1.250366c-3.824997,-1.787109 -3.911697,0.451233 -8.749191,-1.250366" id="path17725" fill-rule="nonzero" fill="#ffffff"/>
      <path d="m183.229401,626.725403c-0.087906,-0.014099 -0.187515,-0.014099 -0.262497,-0.014099c0.087891,0 0.174591,0 0.262497,0.014099" id="path17727" fill-rule="nonzero" fill="#ffffff"/>
      <path d="m183.841095,636.761292c-0.6996,2.600403 -1.949997,2.649597 -3.75,1.250427c0,-0.837891 0,-1.662903 0,-2.500793c2.026199,-0.348022 2.150391,1.176575 3.75,1.250366" id="path17729" fill-rule="nonzero" fill="#ffffff"/>
      <path d="m181.866486,626.637512c0.099609,0.011719 0.212112,0.011719 0.350403,0.023376c-0.125397,-0.011658 -0.250793,-0.011658 -0.350403,-0.023376" id="path17731" fill-rule="nonzero" fill="#ffffff"/>
      <path d="m168.841095,665.510925c2.988297,-2.499573 8.275803,3.337524 13.750809,2.500793c-4.6875,4.201172 -9.162903,-2.450378 -13.750809,-2.500793" id="path17733" fill-rule="nonzero" fill="#231f20"/>
      <path d="m182.591904,609.260925c-0.187515,3.112488 -4.237503,0.363281 -5.000412,0c-0.349197,-2.025024 1.188293,-2.149231 1.250412,-3.75c3,-0.498047 -0.687912,5.689453 3.75,3.75" id="path17735" fill-rule="nonzero" fill="#ffffff"/>
      <path d="m181.341492,474.260895c-3.200394,0.050415 -1.524597,-0.923401 -1.250397,-2.499603c-7.237503,3.20163 -7.149597,-4.29837 -8.749207,-9.999573c7.725006,-0.225006 7.025406,7.974579 9.999603,12.499176" id="path17737" fill-rule="nonzero" fill="#ffffff"/>
      <path d="m180.091095,89.262512c-0.536697,3.137993 -2.687103,-2.076012 -2.499603,-3.75c-1.699188,0.387009 -1.037094,3.123016 -1.250397,4.998016c-2.237091,0.16497 -2.636703,-1.524033 -4.999207,-1.248016c0.537903,-1.962013 3.9375,-1.062012 2.499603,-5.001007c1.662903,0 3.337494,0 5.000412,0c2.186691,2.549995 -0.9375,2.451004 1.249191,5.001007" id="path17739" fill-rule="nonzero" fill="#ffffff"/>
      <path d="m178.841904,344.262512c-0.537903,3.462006 -3.9375,0.059967 -2.500809,-2.498993c1.3629,0.311981 0.8508,2.483978 2.500809,2.498993" id="path17741" fill-rule="nonzero" fill="#231f20"/>
      <path d="m175.091904,605.510925c0.187485,-0.18634 2.424591,4.212891 2.499588,3.75c-0.574203,3.451172 -4.400391,-1.848022 -2.499588,-3.75" id="path17743" fill-rule="nonzero" fill="#ffffff"/>
      <path d="m177.591492,630.511719c-2.9496,4.025391 -5.049591,-4.399231 0,0l0,0" id="path17745" fill-rule="nonzero" fill="#ffffff"/>
      <path d="m173.841492,605.510925c0.525009,2.614502 -0.862488,3.314087 -1.250397,5.000366c-2.224197,-0.911682 -0.174591,-2.273376 0,-3.75c-4.7742,-1.02417 -1.474197,6.024597 -6.249603,5.000427c-0.224991,-1.061707 0.487503,-1.174194 1.250412,-1.250427c-1.3629,-3.800415 -13.524597,-1.512878 -8.750412,-7.5c2.125809,1.412109 1.325409,3.201599 3.75,3.75c2.024994,0.462891 0.375,-3.373779 1.250412,-3.75c1.2621,-0.537903 1.499985,3.66333 1.249191,3.75c1.650009,-0.587097 2.512512,-5.000366 2.500809,1.250427c1.5,-1.41333 2.262894,-3.56134 6.249588,-2.500793" id="path17747" fill-rule="nonzero" fill="#ffffff"/>
      <path d="m173.841492,614.261292c0.862503,0.863708 -4.937088,3.437134 -3.75,1.250427c0.1875,-0.336304 2.687103,-2.312134 3.75,-1.250427" id="path17749" fill-rule="nonzero" fill="#ffffff"/>
      <path d="m173.841492,110.511497c0,1.66201 0,3.339005 0,5.001015c-4.162506,0 -8.3367,0 -12.500397,0c-0.523804,-2.613022 0.862503,-3.312012 1.250397,-5.001015c1.425003,0.237015 0.700806,1.251015 0,1.251015c3.537903,1.961975 7.237503,-1.689003 11.25,-1.251015" id="path17751" fill-rule="nonzero" fill="#ffffff"/>
      <path d="m175.091904,385.511292c-7.362915,1.912506 -16.362915,-5.286285 -23.750412,-7.5c6.637512,-1.199982 14.724609,6.924591 23.750412,7.5" id="path17753" fill-rule="nonzero" fill="#ffffff"/>
      <path d="m172.591095,636.761292c-1.6371,2.363708 -7.5,-1.575012 -7.5,-5.000366c1.662903,-0.18634 4.651199,4.201172 5.000397,1.250366c1.425003,0.239136 0.700806,1.250427 0,1.250427c0.549606,1.113281 1.100403,2.237061 2.499603,2.499573" id="path17755" fill-rule="nonzero" fill="#ffffff"/>
      <path d="m167.591904,551.761658c0.6996,-4.187073 5.25,6.66217 1.249191,0c-0.024597,-0.050354 -1.249191,0.025879 -1.249191,0" id="path17757" fill-rule="nonzero" fill="#231f20"/>
      <path d="m167.591904,566.761719c-2.9496,-8.850037 6.112488,6.850769 1.249191,0c-0.111298,-0.10083 -1.2117,0.125366 -1.249191,0" id="path17759" fill-rule="nonzero" fill="#231f20"/>
      <path d="m170.091492,138.012512c3,7.998016 -12.212097,0.561005 -17.499588,1.248016c-1.113312,-2.598007 8.512497,-0.335999 3.749985,-2.499023c0.537903,-2.798996 6.162903,-0.513 8.749207,-1.250977c-0.1371,2.237991 4.31369,8.888992 5.000397,2.501984" id="path17761" fill-rule="nonzero" fill="#ffffff"/>
      <path d="m165.091095,629.261292c7.137909,1.263306 0.151199,-8.248779 0,-6.249573c0.875397,3.849609 0.875397,2.399963 0,6.249573zm0,-13.749573c-2.8125,4.700378 5.600403,7.263306 5.000397,13.749573c-1.4496,-0.199219 -2.224197,0.276611 -2.499588,1.250427c-4.587906,0 -4.7883,-4.375793 -7.5,-6.250793c0.200394,-1.462524 2.274597,-1.050049 3.75,-1.249207c0.112503,-1.775391 0.212082,-3.537903 -1.250412,-3.75c-3.512085,0.012878 2.975403,3.413696 -2.499588,2.499573c0,-1.662903 0,-3.337463 0,-5.000366c1.436691,1.5 3.161682,0.488647 1.249191,0c-0.225006,-1.060547 0.488708,-1.173035 1.250397,-1.249207c0.837906,0 1.662903,0 2.499603,0" id="path17763" fill-rule="nonzero" fill="#ffffff"/>
      <path d="m170.091492,648.011353c-5.25,0.249573 -2.750397,-7.250427 -7.5,-7.500061c3.687897,-3.611694 7.5,3.275452 7.5,7.500061" id="path17765" fill-rule="nonzero" fill="#231f20"/>
      <path d="m167.591904,591.761292c2.424591,0.113708 -2.637909,5.349609 3.749985,3.75c-2.662491,4.275024 -17.762085,-3.849609 -17.500778,-11.25c2.862885,1.725037 2.937881,6.226196 6.250793,7.5c4.687485,-0.987915 0.074997,-4.374573 2.499588,-6.249573c3.287109,-0.375 0.987915,4.849182 5.000412,3.75c-0.187515,2.313293 -4.237503,0.762878 -5.000412,2.499573c-0.899994,2.025024 5.900406,2.025024 5.000412,0" id="path17767" fill-rule="nonzero" fill="#231f20"/>
      <path d="m167.591904,585.511719c3.224991,-4.299622 3.024582,6.425354 0,0l0,0" id="path17769" fill-rule="nonzero" fill="#231f20"/>
      <path d="m167.591904,60.510521c6.287094,2.762989 -1.563309,6.85199 -1.250412,11.25c-3.137085,-2.423981 1.462494,-7.611 1.250412,-11.25" id="path17771" fill-rule="nonzero" fill="#ffffff"/>
      <path d="m165.091095,623.011719c0.151199,-1.999207 7.137909,7.512878 0,6.249573c0.875397,-3.849609 0.875397,-2.399963 0,-6.249573" id="path17773" fill-rule="nonzero" fill="#231f20"/>
      <path d="m163.841904,533.011719c0.812088,-3.523804 1.4496,2.875793 1.249191,3.749939c-0.574188,2.513733 -2.349609,1.013733 -1.249191,-3.749939" id="path17775" fill-rule="nonzero" fill="#ffffff"/>
      <path d="m165.091095,164.262512c-0.711304,1.160995 -3.474609,1.887009 -1.249191,2.498993c-5.287506,3.974991 -11.425797,-1.875 -16.250412,-2.498993c0.762909,-1.112991 1.512909,-2.237991 0,-2.501984c8.912109,-3.47403 7.3125,2.174988 13.749603,0c-0.587097,2.664001 1.7883,2.375977 3.75,2.501984" id="path17777" fill-rule="nonzero" fill="#ffffff"/>
      <path d="m160.091904,565.511292c4.199997,-1.286682 1.949982,3.888306 2.499588,6.249634c-2.737488,-0.18634 -2.687088,-3.148804 -2.499588,-6.249634" id="path17779" fill-rule="nonzero" fill="#231f20"/>
      <path d="m161.341095,384.260895c0,0.837891 0,1.662903 0,2.500824c-0.8367,0 -1.661697,0 -2.499603,0c0,-0.837921 0,-1.662933 0,-2.500824c0.837906,0 1.662903,0 2.499603,0" id="path17781" fill-rule="nonzero" fill="#ffffff"/>
      <path d="m160.928604,436.687103c-0.2742,0.350403 -0.549606,0.786285 -0.8367,1.324188c0.249588,-0.774597 0.537888,-1.185883 0.8367,-1.324188" id="path17783" fill-rule="nonzero" fill="#231f20"/>
      <path d="m165.091095,320.511505c-5.612106,-1.476013 -6.04921,-8.11203 -11.25,-9.998993c7.238708,-5.774994 11.075409,2.498993 11.25,9.998993" id="path17785" fill-rule="nonzero" fill="#231f20"/>
      <path d="m158.841492,189.261505c0.200394,1.448975 -0.275391,2.226013 -1.250397,2.501984c0.037506,1.209015 1.525803,0.972 2.500809,1.248001c-4.012497,2.237991 -11.850006,-1.973984 -15,-1.248001c-1.700424,-0.389984 -1.0383,-3.125977 -1.250412,-5.000977c6.738312,0.899994 10.400406,1.125 15,2.498993" id="path17787" fill-rule="nonzero" fill="#ffffff"/>
      <path d="m161.341095,264.261475c-6.424194,-4.961975 -13.149597,2.763 -15.000015,-4.997986c5.525406,1.134003 12.837906,0.497986 15.000015,4.997986" id="path17789" fill-rule="nonzero" fill="#ffffff"/>
      <path d="m155.091507,58.011497c1.599594,2.901012 -3.999603,9.287994 -5.000412,13.748993c-3.637497,-4.93499 4.612503,-8.672981 5.000412,-13.748993" id="path17791" fill-rule="nonzero" fill="#ffffff"/>
      <path d="m155.091507,218.013519c-4.787109,2.534988 -13.050003,-0.701981 -15,-5.001007c5.8629,0.813019 14.187881,-0.863998 15,5.001007" id="path17793" fill-rule="nonzero" fill="#ffffff"/>
      <path d="m147.591492,453.011292c0.474609,-2.374207 1.587906,0.801605 1.250412,2.499603c-0.474625,2.376617 -1.587906,-0.798004 -1.250412,-2.499603" id="path17795" fill-rule="nonzero" fill="#ffffff"/>
      <path d="m146.34108,68.010521c2.225418,0.915016 0.175827,2.276985 0,3.75c-2.224182,-0.91201 -0.174576,-2.273979 0,-3.75" id="path17797" fill-rule="nonzero" fill="#ffffff"/>
      <path d="m147.591492,376.760895c-5.199585,1.701599 -10.399185,-3.047974 -15,-6.248383c-8.8125,-6.138 -17.224205,-13.326019 -22.5,-23.751007c4.374596,-4.223999 0.837906,-9.213013 1.250412,-16.247986c1.9254,-1.638031 1.299583,7.760986 2.499588,11.25c3.687912,10.748993 14.274597,21.561005 22.5,27.497986c4.049988,2.925598 9.625809,3.251404 11.25,7.49939zm-32.600395,-25.961365l0.138306,0.323975c-0.037498,-0.098999 -0.087906,-0.201019 -0.138306,-0.323975" id="path17799" fill-rule="nonzero" fill="#ffffff"/>
      <path d="m145.091904,59.262508c3.624588,0.69899 -1.912506,1.950001 -1.250412,3.75c-4.137894,-1.22699 1.400406,-2.474998 1.250412,-3.75" id="path17801" fill-rule="nonzero" fill="#ffffff"/>
      <path d="m143.841492,359.262512c0.375015,1.5 -0.1875,0.659973 -1.250381,-0.812988c0.375,0.347961 0.787476,0.623993 1.250381,0.812988" id="path17803" fill-rule="nonzero" fill="#231f20"/>
      <path d="m141.341904,103.011505c2.212509,-0.398994 2.224197,6.998978 -1.250397,5.001007c0.974991,-1.113022 1.349991,-2.826012 1.250397,-5.001007" id="path17805" fill-rule="nonzero" fill="#ffffff"/>
      <path d="m141.166107,356.523499c0.537872,0.675018 1.012482,1.350006 1.424988,1.926025c-0.5625,-0.513031 -1.037109,-1.176025 -1.424988,-1.926025" id="path17807" fill-rule="nonzero" fill="#231f20"/>
      <path d="m137.591904,120.510521c5.0625,0.525002 -1.713303,8.489998 0,13.751991c-5.162094,-1.811981 1.6875,-7.71299 0,-13.751991" id="path17809" fill-rule="nonzero" fill="#ffffff"/>
      <path d="m133.841904,144.261505c0.949203,1.838989 0.812088,13.262985 -3.75,13.748978c1.624191,-4.211975 -0.1371,-11.798981 3.75,-13.748978" id="path17811" fill-rule="nonzero" fill="#ffffff"/>
      <path d="m130.091904,78.012512c0.999603,0.662987 2.024994,1.298988 3.75,1.248016c-0.363312,4.349991 -3.387894,-0.09903 -3.75,2.501984c-1.850403,-0.551994 0.487503,-1.60199 0,-3.75" id="path17813" fill-rule="nonzero" fill="#ffffff"/>
      <path d="m132.591492,343.011505c0.037506,0.789001 0.112488,1.562988 0.237915,2.324982c-0.237915,-0.698975 -0.350418,-1.460999 -0.237915,-2.324982" id="path17815" fill-rule="nonzero" fill="#ffffff"/>
      <path d="m130.091904,178.011505c0.675003,3.548981 -3.824997,-7.275009 -3.75,-11.25c4.237503,0.762009 1.587906,8.412003 3.75,11.25" id="path17817" fill-rule="nonzero" fill="#ffffff"/>
      <path d="m126.341904,64.260521c-7.338303,4.401024 -3.387901,8.364014 0,0l0,0zm6.249588,-7.5c-4.6875,7.815018 -7.374588,17.625 -12.500389,25.001991c-4.674606,-2.012993 5.8629,-11.687981 -2.499603,-10.001991c4.625404,-5.373009 6.575401,-13.425003 14.999992,-15" id="path17819" fill-rule="nonzero" fill="#231f20"/>
      <path d="m126.341904,64.260521c-3.387901,8.364014 -7.338303,4.401024 0,0l0,0" id="path17821" fill-rule="nonzero" fill="#ffffff"/>
      <path d="m117.591492,221.763519c1.8246,2.309982 -1.274994,10.334991 -2.499588,13.748993c-4.0746,-0.200974 0.875397,-11.111984 2.499588,-13.748993" id="path17823" fill-rule="nonzero" fill="#ffffff"/>
      <path d="m115.091904,78.012512c2.024994,1.223984 2.874603,3.335999 1.249199,4.998016c-1.699196,-0.387016 -1.037102,-3.123016 -1.249199,-4.998016" id="path17825" fill-rule="nonzero" fill="#231f20"/>
      <path d="m115.129402,351.123505l-0.138306,-0.323975c0.0504,0.122955 0.100807,0.224976 0.138306,0.323975" id="path17827" fill-rule="nonzero" fill="#231f20"/>
      <path d="m112.591087,310.512512c0.4758,-2.376007 1.587914,0.798004 1.250404,2.498993c-0.474594,2.376007 -1.587891,-0.797974 -1.250404,-2.498993" id="path17829" fill-rule="nonzero" fill="#ffffff"/>
      <path d="m111.341904,248.013519c3.549599,1.662018 -0.963303,5.559006 -1.250397,7.5c-2.612106,-0.726013 1.799995,-4.727997 1.250397,-7.5" id="path17831" fill-rule="nonzero" fill="#ffffff"/>
      <path d="m95.091499,345.513519c0.0504,0.860992 0.1875,1.721985 0.387901,2.546997c-0.588394,-0.561005 -0.925888,-1.412994 -0.387901,-2.546997" id="path17833" fill-rule="nonzero" fill="#ffffff"/>
      <path d="m73.841812,329.262512c0.474602,-2.376007 1.586693,0.798004 1.249199,2.498993c-0.474602,2.376007 -1.5867,-0.797974 -1.249199,-2.498993" id="path17835" fill-rule="nonzero" fill="#ffffff"/>
      <path d="m73.841812,269.262512c0,0.837006 0,1.662018 0,2.498962c-0.837906,0 -1.662903,0 -2.500801,0c0,-0.836945 0,-1.661957 0,-2.498962c0.837898,0 1.662895,0 2.500801,0" id="path17837" fill-rule="nonzero" fill="#231f20"/>
     </g>
    </g>
   </g>
  </g>
 </g>
</svg>